<?xml version="1.0" encoding="iso-8859-1"?>
<!-- Generator: Adobe Illustrator 19.0.0, SVG Export Plug-In . SVG Version: 6.00 Build 0)  -->
<svg version="1.1" id="Layer_1" xmlns="http://www.w3.org/2000/svg" xmlns:xlink="http://www.w3.org/1999/xlink" x="0px" y="0px"
	 viewBox="0 0 463 463" style="enable-background:new 0 0 463 463;" xml:space="preserve">
<g>
	<g>
		<g>
			<path d="M407.5,280c-6.255,0-12.265,1.055-17.879,2.972l-7.645-15.291C389.968,264.658,398.58,263,407.5,263
				c10.076,0,19.826,2.025,28.978,6.021c3.794,1.654,8.217-0.078,9.874-3.873c1.657-3.797-0.077-8.218-3.873-9.875
				C431.422,250.447,419.654,248,407.5,248c-11.307,0-22.207,2.205-32.257,6.215l-27.785-55.57c1.314,0.229,2.663,0.355,4.042,0.355
				h16c4.142,0,7.5-3.357,7.5-7.5v-32c0-4.143-3.358-7.5-7.5-7.5h-16c-9.126,0-17.048,5.232-20.939,12.852l-7.931-15.862
				c-4.006-8.013-12.061-12.99-21.019-12.99H287.5c-4.142,0-7.5,3.357-7.5,7.5s3.358,7.5,7.5,7.5h14.111
				c3.24,0,6.154,1.801,7.603,4.699l19.424,38.847l-3.647,1.824C316.978,200.376,312,208.43,312,217.389V296h-64.5
				c-13.509,0-24.5-10.99-24.5-24.5V239h0.5c12.958,0,23.5-10.542,23.5-23.5S236.458,192,223.5,192h-64
				c-6.425,0-12.253,2.594-16.5,6.787V87.5c0-8.547-6.953-15.5-15.5-15.5h-112C6.953,72,0,78.953,0,87.5v112
				c0,8.547,6.953,15.5,15.5,15.5h16.834c-0.354,1.537-0.547,3.121-0.521,4.74C31.981,230.36,40.758,239,51.379,239h40.322
				c-5.071,3.238-9.415,6.665-13.03,9.914c-16.617,14.933-25.497,32.727-28.266,44.4c-1.493,6.295-0.06,12.795,3.933,17.836
				c3.938,4.973,9.837,7.821,16.189,7.821c0.014,0,0.027,0,0.041,0l3.952-0.007C72.861,324.291,72,329.868,72,335.5
				c0,30.603,24.897,55.5,55.5,55.5c28.058,0,51.305-20.934,54.979-48H327.5c4.142,0,7.5-3.357,7.5-7.5
				c0-4.887,0.488-9.769,1.451-14.509c4.006-19.734,15.971-36.281,32.117-46.586l7.643,15.286
				C361.605,299.699,352,316.497,352,335.5c0,30.603,24.897,55.5,55.5,55.5c30.603,0,55.5-24.897,55.5-55.5
				C463,304.897,438.103,280,407.5,280z M159.5,207h64c4.687,0,8.5,3.813,8.5,8.5s-3.813,8.5-8.5,8.5h-64
				c-4.687,0-8.5-3.813-8.5-8.5S154.813,207,159.5,207z M15,87.5c0-0.275,0.224-0.5,0.5-0.5h112c0.276,0,0.5,0.225,0.5,0.5V104H15
				V87.5z M15.5,200c-0.276,0-0.5-0.225-0.5-0.5V119h113v80.5c0,0.275-0.224,0.5-0.5,0.5H15.5z M51.379,224
				c-2.479,0-4.528-2.017-4.567-4.496c-0.02-1.235,0.448-2.4,1.315-3.28c0.61-0.618,1.368-1.028,2.191-1.224l85.695,0.024
				c-0.003,0.159-0.012,0.316-0.012,0.476c0,2.997,0.57,5.862,1.597,8.5H51.379z M70.54,303.972c-0.004,0-0.008,0-0.012,0
				c-2.383,0-3.799-1.337-4.431-2.135c-1.123-1.418-1.522-3.262-1.096-5.06C70.528,273.477,99.299,239,143.5,239
				c34.313,0,47.1,32.793,47.1,53.464c0,5.606-3.095,11.288-9.011,11.299L70.54,303.972z M136,335.5c0,4.687-3.813,8.5-8.5,8.5
				s-8.5-3.813-8.5-8.5s3.813-8.5,8.5-8.5S136,330.813,136,335.5z M127.5,376c-22.332,0-40.5-18.168-40.5-40.5
				c0-5.735,1.234-11.383,3.556-16.566l20.33-0.038C106.634,323.151,104,329.023,104,335.5c0,12.958,10.542,23.5,23.5,23.5
				s23.5-10.542,23.5-23.5c0-6.509-2.661-12.407-6.951-16.667l20.332-0.039c2.363,5.22,3.619,10.918,3.619,16.705
				C168,357.832,149.832,376,127.5,376z M321.751,318.007c-0.668,3.287-1.146,6.628-1.433,9.993h-137.83
				c-0.427-3.136-1.123-6.226-2.073-9.235l1.2-0.002c13.673-0.025,23.984-11.331,23.984-26.299c0-16.229-5.401-32.675-14.819-45.119
				c-2.066-2.73-4.575-5.594-7.572-8.345H208v32.5c0,21.78,17.72,39.5,39.5,39.5h72c1.662,0,3.193-0.547,4.436-1.462
				C323.077,312.303,322.336,315.123,321.751,318.007z M351.5,167h8.5v17h-8.5c-4.687,0-8.5-3.813-8.5-8.5S346.813,167,351.5,167z
				 M327,301.213v-83.825c0-3.24,1.8-6.153,4.699-7.603l3.647-1.824l26.49,52.979C346.522,270.341,334.206,284.344,327,301.213z
				 M407.5,376c-22.332,0-40.5-18.168-40.5-40.5c0-22.332,18.168-40.5,40.5-40.5c22.332,0,40.5,18.168,40.5,40.5
				C448,357.832,429.832,376,407.5,376z"/>
			<path d="M407.5,312c-12.958,0-23.5,10.542-23.5,23.5s10.542,23.5,23.5,23.5s23.5-10.542,23.5-23.5S420.458,312,407.5,312z
				 M407.5,344c-4.687,0-8.5-3.813-8.5-8.5s3.813-8.5,8.5-8.5s8.5,3.813,8.5,8.5S412.187,344,407.5,344z"/>
		</g>
	</g>
</g>
<g>
</g>
<g>
</g>
<g>
</g>
<g>
</g>
<g>
</g>
<g>
</g>
<g>
</g>
<g>
</g>
<g>
</g>
<g>
</g>
<g>
</g>
<g>
</g>
<g>
</g>
<g>
</g>
<g>
</g>
</svg>
