<?xml version="1.0" encoding="UTF-8"?>
<svg width="22px" height="22px" viewBox="0 0 22 22" version="1.1" xmlns="http://www.w3.org/2000/svg" xmlns:xlink="http://www.w3.org/1999/xlink">
    <!-- Generator: Sketch 53.2 (72643) - https://sketchapp.com -->
    <title>cancel (1)</title>
    <desc>Created with Sketch.</desc>
    <g id="CHAT-designs" stroke="none" stroke-width="1" fill="none" fill-rule="evenodd">
        <g id="User-clicks-on-mic" transform="translate(-996.000000, -1360.000000)" fill="#808080" fill-rule="nonzero">
            <g id="cancel-(1)" transform="translate(996.000000, 1360.000000)">
                <path d="M14.1,11.3 C13.9,11.1 13.9,10.8 14.1,10.6 L21.6,3.1 C21.8,2.9 21.9,2.6 21.9,2.4 C21.9,2.2 21.8,1.9 21.6,1.7 L20.2,0.3 C20,0.1 19.7,0 19.5,0 C19.2,0 19,0.1 18.8,0.3 L11.3,7.8 C11.1,8 10.8,8 10.6,7.8 L3.1,0.3 C2.9,0.1 2.6,0 2.4,0 C2.2,0 1.9,0.1 1.7,0.3 L0.3,1.7 C0.1,1.9 0,2.2 0,2.4 C0,2.6 0.1,2.9 0.3,3.1 L7.8,10.6 C8,10.8 8,11.1 7.8,11.3 L0.3,18.8 C0.1,19 0,19.3 0,19.5 C0,19.7 0.1,20 0.3,20.2 L1.7,21.6 C1.9,21.8 2.2,21.9 2.4,21.9 C2.6,21.9 2.9,21.8 3.1,21.6 L10.6,14.1 C10.8,13.9 11.1,13.9 11.3,14.1 L18.8,21.6 C19,21.8 19.3,21.9 19.5,21.9 C19.7,21.9 20,21.8 20.2,21.6 L21.6,20.2 C21.8,20 21.9,19.7 21.9,19.5 C21.9,19.3 21.8,19 21.6,18.8 L14.1,11.3 Z" id="Path"></path>
            </g>
        </g>
    </g>
</svg>