<?xml version="1.0" encoding="UTF-8"?>
<svg width="29px" height="42px" viewBox="0 0 29 42" version="1.1" xmlns="http://www.w3.org/2000/svg" xmlns:xlink="http://www.w3.org/1999/xlink">
    <!-- Generator: Sketch 53.2 (72643) - https://sketchapp.com -->
    <title>microphone-black-shape</title>
    <desc>Created with Sketch.</desc>
    <g id="CHAT-designs" stroke="none" stroke-width="1" fill="none" fill-rule="evenodd">
        <g id="Conversation" transform="translate(-876.000000, -1434.000000)" fill="#808080" fill-rule="nonzero">
            <g id="microphone-black-shape" transform="translate(876.000000, 1434.000000)">
                <path d="M14.9213248,28.7368421 C17.201318,28.7368421 19.1524869,27.9551999 20.7758297,26.3926144 C22.3989003,24.8300289 23.2105263,22.9501906 23.2105263,20.7548471 L23.2105263,7.98286874 C23.2105263,5.78752523 22.3995354,3.90847335 20.7758297,2.34510148 C19.1524869,0.782079112 17.201318,0 14.9213248,0 C12.6416039,0 10.6901628,0.782079112 9.06672923,2.34510148 C7.44320497,3.90821123 6.63157895,5.78752523 6.63157895,7.98286874 L6.63157895,20.7548471 C6.63157895,22.9501032 7.44356791,24.8300289 9.06672923,26.3926144 C10.6898905,27.9551999 12.6416039,28.7368421 14.9213248,28.7368421 Z" id="Path"></path>
                <path d="M28.261988,15.9659927 C27.946933,15.6378173 27.5719424,15.4736842 27.13955,15.4736842 C26.7075944,15.4736842 26.3334775,15.6378173 26.017112,15.9659927 C25.7014454,16.2940773 25.543481,16.6825891 25.543481,17.1314372 L25.543481,20.4473968 C25.543481,23.6424114 24.4497876,26.3751498 22.2629251,28.6460654 C20.0767614,30.9170717 17.4449252,32.0525749 14.3682026,32.0525749 C11.2915674,32.0525749 8.65999329,30.9170717 6.47304334,28.6460654 C4.2863555,26.3757849 3.19309895,23.6425022 3.19309895,20.4473968 L3.19309895,17.1314372 C3.19309895,16.6825891 3.03504723,16.2940773 2.71920592,15.9659927 C2.40318986,15.6378173 2.02942245,15.4736842 1.5967679,15.4736842 C1.16411334,15.4736842 0.789909092,15.6378173 0.474067773,15.9659927 C0.157964345,16.2940773 0,16.6825891 0,17.1314372 L0,20.4473968 C0,24.2640121 1.22667002,27.5842361 3.6793111,30.4075243 C6.13203956,33.2309033 9.16280568,34.8498232 12.7716968,35.2640119 L12.7716968,38.6837682 L6.38593579,38.6837682 C5.95354334,38.6837682 5.57942646,38.8480827 5.26349777,39.1762581 C4.94748171,39.5041613 4.78943,39.8928545 4.78943,40.3418841 C4.78943,40.7901878 4.94748171,41.1796069 5.26349777,41.5075101 C5.57942646,41.8354133 5.95354334,42 6.38593579,42 L22.3500326,42 C22.7823377,42 23.1569788,41.835504 23.4724706,41.5075101 C23.7888362,41.1796976 23.9469753,40.7902786 23.9469753,40.3418841 C23.9469753,39.8929453 23.7888362,39.504252 23.4724706,39.1762581 C23.1570662,38.8480827 22.7824251,38.6837682 22.3500326,38.6837682 L15.9650579,38.6837682 L15.9650579,35.2640119 C19.5733375,34.8498232 22.6038415,33.2309033 25.056832,30.4075243 C27.5098226,27.5842361 28.7368421,24.2640121 28.7368421,20.4473968 L28.7368421,17.1314372 C28.7368421,16.6826798 28.5784409,16.2944402 28.261988,15.9659927 Z" id="Path"></path>
            </g>
        </g>
    </g>
</svg>